<svg width="128" height="128" viewBox="0 0 128 128" fill="none" xmlns="http://www.w3.org/2000/svg">
  <rect width="128" height="128" rx="24" fill="#0d1117"/>
  <circle cx="64" cy="64" r="58" fill="#1f6feb" fill-opacity="0.06" stroke="#1f6feb" stroke-width="1.5" stroke-opacity="0.3"/>
  <circle cx="64" cy="64" r="48" fill="none" stroke="#58a6ff" stroke-width="0.8" stroke-opacity="0.2"/>
  <polygon points="64,18 104,50 64,110 24,50" fill="#0d1117"/>
  <polygon points="64,18 104,50 64,110 24,50" fill="none" stroke="#58a6ff" stroke-width="3"/>
  <polygon points="64,18 104,50 64,50" fill="#1f6feb" fill-opacity="0.55"/>
  <polygon points="64,18 24,50 64,50" fill="#1f6feb" fill-opacity="0.2"/>
  <polygon points="24,50 64,50 64,110" fill="#1f6feb" fill-opacity="0.08"/>
  <polygon points="104,50 64,50 64,110" fill="#1f6feb" fill-opacity="0.18"/>
  <line x1="24" y1="50" x2="104" y2="50" stroke="#88c8ff" stroke-width="1.5"/>
  <line x1="64" y1="18" x2="64" y2="50" stroke="#88c8ff" stroke-width="1.5" stroke-opacity="0.7"/>
  <line x1="64" y1="50" x2="64" y2="110" stroke="#58a6ff" stroke-width="1" stroke-opacity="0.3"/>
  <polygon points="64,18 88,36 64,36" fill="white" fill-opacity="0.55"/>
</svg>